<?xml version="1.0" encoding="utf-8"?>
<!-- Generator: Adobe Illustrator 21.0.2, SVG Export Plug-In . SVG Version: 6.00 Build 0)  -->
<svg version="1.1" id="Layer_1" xmlns="http://www.w3.org/2000/svg" xmlns:xlink="http://www.w3.org/1999/xlink" x="0px" y="0px"
	 viewBox="0 0 1024 1024" style="enable-background:new 0 0 1024 1024;" xml:space="preserve">
<style type="text/css">
	.st0{opacity:0.9;}
	.st1{fill:#F9B21D;}
	.st2{fill:#226DB4;}
</style>
<g class="st0">
	<path class="st1" d="M812,690.8c-16.6,0-30-13.4-30-30V497.6c0-16.9-13.7-30.6-30.6-30.6H272.6c-16.9,0-30.6,13.7-30.6,30.6v34.2
		c0,16.6-13.4,30-30,30s-30-13.4-30-30v-34.2c0-50,40.7-90.6,90.6-90.6h478.8c50,0,90.6,40.7,90.6,90.6v163.2
		C842,677.3,828.6,690.8,812,690.8z"/>
</g>
<g class="st0">
	<path class="st2" d="M933.3,1023.8H90.7c-50,0-90.6-40.7-90.6-90.6V693.7c0-16.6,13.4-30,30-30s30,13.4,30,30v239.4
		c0,16.9,13.7,30.6,30.6,30.6h842.6c16.9,0,30.6-13.7,30.6-30.6v-508c0-9.4-4.2-18.1-11.6-24L531,66.9c-11.2-8.9-26.9-8.9-38.1,0
		L71.6,401.1c-7.4,5.8-11.6,14.6-11.6,24l0,102.7c0,11.3,6.2,21.7,16.2,27l421.3,224.1c9,4.8,19.8,4.8,28.8,0l271.5-144.6
		c14.6-7.8,32.8-2.2,40.6,12.4c7.8,14.6,2.2,32.8-12.4,40.6L554.6,831.9c-26.7,14.2-58.5,14.2-85.2,0L48.1,607.8
		c-29.6-15.8-48.1-46.4-48.1-80l0-102.7c0-27.8,12.5-53.7,34.3-71L455.7,19.9c16-12.7,36-19.6,56.3-19.6c0,0,0,0,0,0
		c20.4,0,40.4,7,56.3,19.6l421.3,334.3c21.8,17.3,34.3,43.2,34.3,71v508C1023.9,983.1,983.3,1023.8,933.3,1023.8z"/>
</g>
</svg>
